<?xml version="1.0" encoding="utf-8"?>
<!-- Generator: Adobe Illustrator 19.0.0, SVG Export Plug-In . SVG Version: 6.00 Build 0)  -->
<!DOCTYPE svg PUBLIC "-//W3C//DTD SVG 1.1//EN" "http://www.w3.org/Graphics/SVG/1.1/DTD/svg11.dtd">
<svg version="1.1" id="Layer_1" xmlns="http://www.w3.org/2000/svg" xmlns:xlink="http://www.w3.org/1999/xlink" x="0px" y="0px"
	 viewBox="0 0 184 196" style="enable-background:new 0 0 184 196;" xml:space="preserve">
<style type="text/css">
	.st0{fill:none;stroke:#000000;stroke-width:4;stroke-miterlimit:10;}
	.st1{fill:#FFFFFF;}
	.st2{enable-background:new    ;}
	.st3{font-family:'Bebas';}
	.st4{font-size:29.2017px;}
</style>
<g id="XMLID_13_">
	<g id="XMLID_43_">
		<polygon id="XMLID_44_" class="st0" points="2,2 2,182 84.2,182 73.4,174 87.5,174 92.1,160.2 96.8,174 110.6,174 99.6,182 
			182,182 182,2 		"/>
	</g>
</g>
<g id="XMLID_19_">
	<polygon id="XMLID_30_" points="91.7,159.9 87,173.7 73,173.7 84.2,182 80.1,195.6 91.7,187.1 103.6,195.6 98.9,181.8 110.2,173.7 
		96.3,173.7 	"/>
	<polygon id="XMLID_29_" class="st1" points="92.2,162.4 92.2,178.1 96,173.6 	"/>
	<polygon id="XMLID_28_" class="st1" points="91.4,178.1 106.5,174.3 97.1,180.4 	"/>
	<polygon id="XMLID_27_" class="st1" points="91.4,178.1 100.6,190.6 91.6,184.4 	"/>
	<polygon id="XMLID_26_" class="st1" points="85.5,181.2 91.4,178.1 82.9,192.2 	"/>
	<polygon id="XMLID_21_" class="st1" points="77.5,175.2 89.4,174.3 91.4,178.1 	"/>
</g>
<text id="XMLID_1_" transform="matrix(1 0 0 1 27.0912 62.3013)" class="st2"><tspan x="0" y="0" class="st3 st4">lone star</tspan><tspan x="17.7" y="38.9" class="st3 st4">ANIMAL</tspan><tspan x="4.5" y="77.9" class="st3 st4"> HOSPITAL</tspan></text>
</svg>
